<svg width="249" height="62" viewBox="0 0 249 62" fill="none"
    xmlns="http://www.w3.org/2000/svg">
    <path d="M23.2815 27.559C26.3006 26.288 27.5456 23.994 27.5456 21.514C27.5456 16.523 22.908 13.795 16.0605 13.795C12.6679 13.795 10.0534 14.074 7.50115 14.074C5.22902 14.074 3.98402 13.95 3.05027 13.95C1.9609 13.95 1.55627 14.508 1.55627 15.159C1.55627 16.895 4.0774 16.027 4.0774 18.91V38.657C4.0774 41.54 1.55627 40.672 1.55627 42.408C1.55627 43.059 1.9609 43.617 3.0814 43.617C3.98402 43.617 5.22902 43.493 7.53227 43.493C9.74215 43.493 13.8506 43.648 17.3989 43.648C25.7715 43.648 29.7866 40.393 29.7866 35.092C29.8178 31.279 27.1721 28.675 23.2815 27.559ZM10.956 19.096C10.956 17.515 11.9209 17.112 13.944 17.112H14.5354C18.1148 17.112 20.169 18.941 20.169 21.948C20.169 24.955 18.1459 26.319 15.0334 26.319H12.3255C11.205 26.319 10.956 26.04 10.956 25.296V19.096ZM15.7493 40.455H14.5976C11.7653 40.455 10.9871 40.083 10.9871 37.82V30.659C10.9871 29.76 11.3295 29.388 12.2633 29.388H15.0023C19.7333 29.388 22.2544 31.589 22.2544 35.216C22.2544 38.471 19.671 40.455 15.7493 40.455Z" fill="#004235"/>
    <path d="M50.049 22.351C47.061 22.351 44.1041 24.738 42.8591 27.9V24.49C42.8591 23.343 42.579 22.506 41.583 22.506C41.1161 22.506 40.6181 22.63 37.8791 23.87C34.9223 25.141 33.8951 25.73 33.8951 26.629C33.8951 28.458 36.6341 27.28 36.6341 29.946V38.657C36.6341 41.726 34.1753 40.796 34.1753 42.47C34.1753 43.059 34.5799 43.617 35.5759 43.617C36.5719 43.617 37.6613 43.493 39.7155 43.493C42.0499 43.493 43.326 43.617 44.4154 43.617C45.4114 43.617 45.816 42.997 45.816 42.47C45.816 40.641 42.828 41.726 42.828 38.657V34.844C42.828 29.853 45.3491 27.652 46.9676 27.652C48.0881 27.652 48.804 28.52 49.551 30.008C49.8934 30.659 50.298 31.217 50.9516 31.217C51.6675 31.217 52.1344 30.721 52.4456 29.884C53.3171 27.807 53.8463 26.288 53.8463 25.141C53.9085 23.684 52.3523 22.351 50.049 22.351Z" fill="#004235"/>
    <path d="M80.6137 39.897C78.3416 39.432 77.3767 38.998 77.0032 36.27L76.0383 29.481C75.4158 24.924 72.7702 22.289 67.5723 22.289C64.0863 22.289 61.2228 23.56 59.5732 25.172C58.9507 25.699 58.2348 26.505 58.2348 27.249C58.2348 27.993 58.8262 28.396 59.3242 28.396C59.7911 28.396 60.3202 28.117 60.9116 27.776C62.25 26.908 63.744 26.195 65.5492 26.195C67.9147 26.195 69.5332 27.559 70.0312 31.062L70.0623 31.527C68.8173 31.155 67.2922 30.876 65.3625 30.876C59.76 30.876 56.6475 33.852 56.6475 37.603C56.6475 41.323 59.4798 43.958 64.0241 43.958C67.479 43.958 70.1246 42.501 71.712 40.982C72.6146 42.842 74.3265 43.803 76.194 43.803C79.4621 43.803 81.3918 41.85 81.3918 40.703C81.3918 40.269 81.0806 39.99 80.6137 39.897ZM66.732 40.393C64.6466 40.393 63.1215 39.029 63.1215 36.921C63.1215 34.813 64.7711 33.697 67.3856 33.697C68.5061 33.697 69.5955 33.852 70.467 34.162L71.0583 38.502C70.1557 39.463 68.475 40.393 66.732 40.393Z" fill="#004235"/>
    <path d="M96.0206 30.039C92.628 29.202 90.4492 28.83 90.4492 27.156C90.4492 26.04 91.5697 25.265 93.2193 25.265C95.8027 25.265 98.7285 26.846 101.063 28.768C101.592 29.233 102.059 29.667 102.681 29.667C103.179 29.667 103.646 29.264 103.646 28.644C103.646 28.024 103.148 27.125 102.557 26.257L101.032 23.87C100.503 23.033 100.036 22.258 99.1331 22.258C98.1682 22.258 98.1682 23.095 97.359 23.095C96.612 23.095 94.7445 22.444 92.379 22.444C87.8658 22.444 84.4421 25.048 84.4421 28.768C84.4421 33.077 88.9552 34.751 93.4372 35.743C96.7053 36.487 99.1642 36.859 99.1642 38.688C99.1642 40.021 97.8881 41.137 95.6782 41.137C92.2233 41.137 89.1108 38.936 86.6208 36.549C86.0295 35.96 85.5937 35.588 85.0335 35.588C84.4732 35.588 83.9441 35.991 83.9441 36.797C83.9441 37.541 84.411 38.285 85.0335 39.618L86.403 42.563C86.7765 43.4 87.2433 44.392 88.1148 44.392C89.142 44.392 89.2353 43.307 90.2625 43.307C91.0406 43.307 92.7836 44.051 95.7093 44.051C100.969 44.051 105.171 41.602 105.171 37.231C105.171 32.519 100.658 31.093 96.0206 30.039Z" fill="#004235"/>
    <path d="M121.356 30.039C117.964 29.202 115.785 28.83 115.785 27.156C115.785 26.04 116.906 25.265 118.555 25.265C121.107 25.265 124.064 26.846 126.399 28.768C126.928 29.233 127.395 29.667 128.017 29.667C128.515 29.667 128.982 29.264 128.982 28.644C128.982 28.024 128.484 27.125 127.893 26.257L126.368 23.87C125.838 23.033 125.372 22.258 124.469 22.258C123.504 22.258 123.504 23.095 122.695 23.095C121.948 23.095 120.08 22.444 117.715 22.444C113.202 22.444 109.778 25.048 109.778 28.768C109.778 33.077 114.291 34.751 118.773 35.743C122.041 36.487 124.5 36.859 124.5 38.688C124.5 40.021 123.224 41.137 121.014 41.137C117.559 41.137 114.447 38.936 111.957 36.549C111.365 35.96 110.93 35.588 110.369 35.588C109.809 35.588 109.28 35.991 109.28 36.797C109.28 37.541 109.747 38.285 110.369 39.618L111.739 42.563C112.112 43.4 112.579 44.392 113.451 44.392C114.478 44.392 114.571 43.307 115.598 43.307C116.376 43.307 118.119 44.051 121.014 44.051C126.274 44.051 130.476 41.602 130.476 37.231C130.507 32.519 125.994 31.093 121.356 30.039Z" fill="#004235"/>
    <path d="M143.704 38.657V24.49C143.704 23.343 143.424 22.506 142.428 22.506C141.961 22.506 141.463 22.63 138.724 23.87C135.767 25.141 134.74 25.73 134.74 26.629C134.74 28.458 137.479 27.28 137.479 29.946V38.657C137.479 41.726 135.02 40.796 135.02 42.47C135.02 43.059 135.456 43.617 136.421 43.617C137.417 43.617 138.506 43.493 140.56 43.493C142.615 43.493 143.766 43.617 144.762 43.617C145.727 43.617 146.132 42.997 146.132 42.47C146.163 40.827 143.704 41.726 143.704 38.657ZM141.152 12.71C138.288 12.71 136.078 14.942 136.078 17.019C136.078 18.6 137.323 19.623 139.16 19.623C141.992 19.623 144.389 17.515 144.389 15.5C144.389 13.826 142.864 12.71 141.152 12.71Z" fill="#004235"/>
    <path d="M170.472 37.169C170.129 37.169 169.849 37.324 169.444 37.696C168.199 38.936 166.456 40.052 164.091 40.052C160.325 40.052 156.745 36.611 156.745 31.031C156.745 27.187 158.395 24.707 160.947 24.707C163.78 24.707 164.527 27.838 165.056 30.411C165.18 31.186 165.647 31.775 166.394 31.775C166.768 31.775 167.141 31.651 167.764 31.124C168.168 30.814 168.511 30.504 168.822 30.194C167.421 28.458 166.643 26.381 166.456 23.994C166.425 23.622 166.394 23.157 166.394 22.94C165.087 22.382 163.5 22.01 161.819 22.01C155.749 22.01 150.334 26.505 150.334 33.542C150.334 40.331 155.22 44.33 161.414 44.33C166.612 44.33 170.005 41.633 171.125 39.401C171.343 38.936 171.468 38.564 171.468 38.192C171.374 37.665 171.001 37.169 170.472 37.169Z" fill="#004235"/>
    <path d="M218.871 38.657V13.95C218.871 12.741 218.591 11.966 217.595 11.966C217.19 11.966 216.63 12.09 213.891 13.299C210.996 14.632 209.907 15.159 209.907 16.058C209.907 17.918 212.646 16.771 212.646 19.375V38.657C212.646 41.726 210.249 40.796 210.249 42.47C210.249 43.059 210.654 43.617 211.65 43.617C212.646 43.617 213.673 43.493 215.758 43.493C217.875 43.493 218.995 43.617 219.96 43.617C220.956 43.617 221.361 42.997 221.361 42.47C221.361 40.827 218.871 41.726 218.871 38.657Z" fill="#004235"/>
    <path d="M246.292 37.479C245.887 37.479 245.545 37.696 244.891 38.192C243.366 39.463 241.654 40.269 239.569 40.269C236.55 40.269 234.184 38.378 232.877 35.774L245.327 31.961C246.074 31.713 246.448 31.496 246.448 30.318C246.448 26.257 242.868 22.041 236.955 22.041C230.854 22.041 225.501 26.505 225.501 33.356C225.501 40.052 230.263 44.361 236.643 44.361C241.717 44.361 245.514 41.788 246.883 39.649C247.132 39.246 247.257 38.905 247.257 38.564C247.288 38.099 246.915 37.479 246.292 37.479ZM231.819 31.031C231.819 27.404 233.593 25.172 236.083 25.172C238.449 25.172 240.098 27.497 240.098 29.388C240.098 30.132 239.756 30.473 239.102 30.659L231.975 32.984C231.881 32.333 231.819 31.682 231.819 31.031Z" fill="#004235"/>
    <path d="M176.666 31.868C176.759 29.636 177.101 27.683 177.879 25.854C178.315 24.8 178.969 23.808 179.56 22.816C179.965 22.165 180.432 21.545 180.961 20.956C181.241 20.615 181.614 20.305 182.019 20.119C183.202 19.592 184.385 20.398 184.385 21.7C184.385 22.599 184.291 23.467 184.602 24.335C185.194 26.009 186.159 27.466 187.528 28.52C189.116 29.76 191.076 30.101 193.1 29.977C197.862 29.698 201.036 26.97 203.495 23.25C204.398 21.917 205.207 20.491 205.425 18.848C205.643 17.205 205.643 15.562 205.767 13.888C205.799 13.423 205.799 12.927 205.923 12.493C206.203 11.532 207.23 10.819 208.133 10.819C208.942 10.819 209.658 11.594 209.969 12.524C210.094 12.927 210.094 13.423 210 13.857C209.658 15.593 209.004 17.205 207.977 18.662C206.888 20.15 206.421 21.917 205.985 23.622C205.332 26.226 204.803 28.923 204.865 31.62C204.927 33.666 204.522 35.65 204.087 37.603C203.651 39.525 202.655 41.106 201.254 42.47C200.57 43.152 199.854 43.834 199.076 44.454C197.426 45.725 195.527 46.314 193.473 46.345C192.228 46.376 191.045 46.19 189.863 45.787C188.742 45.384 187.497 45.26 186.345 44.919C184.54 44.392 182.828 43.617 181.428 42.346C180.867 41.85 180.369 41.261 179.934 40.672C178.875 39.153 177.942 37.51 177.288 35.774C176.852 34.441 176.448 33.077 176.666 31.868Z" fill="#F59F00"/>
    <path d="M205.736 7.936C205.581 8.587 205.425 9.486 205.145 10.323C205.021 10.726 204.709 11.036 204.46 11.377C204.398 11.47 204.149 11.563 204.056 11.532C203.962 11.47 203.838 11.284 203.869 11.16C203.869 9.579 203.402 8.122 202.935 6.665C202.904 6.541 202.873 6.386 202.842 6.262C202.78 5.704 203.029 5.208 203.433 4.991C203.838 4.805 204.523 4.929 204.896 5.27C205.674 5.921 205.705 6.789 205.736 7.936Z" fill="#F59F00"/>
    <path d="M207.293 4.991C207.293 4.557 207.604 4.185 207.977 4.185C208.382 4.185 208.724 4.557 208.724 4.991C208.724 5.456 208.382 5.828 208.008 5.828C207.604 5.859 207.293 5.456 207.293 4.991Z" fill="#F59F00"/>
    <path d="M183.669 46.283C183.077 45.911 182.61 45.601 182.144 45.291C181.677 45.787 181.895 46.283 182.112 46.81C181.334 47.368 180.587 47.895 179.778 48.453C178.595 46.624 178.844 44.795 179.716 42.997C179.622 42.873 179.56 42.78 179.498 42.687C177.537 40.083 176.51 37.107 176.292 33.883C176.261 33.418 176.074 33.17 175.67 32.922C174.518 32.271 173.397 31.62 172.308 30.876C171.623 30.38 171.001 29.791 170.409 29.171C168.947 27.652 168.324 25.761 168.2 23.746C168.137 23.095 167.982 22.63 167.359 22.351C166.955 22.165 166.581 21.886 166.425 21.359C166.768 21.452 167.079 21.545 167.39 21.576C168.106 21.638 168.542 21.328 168.698 20.646C168.791 20.305 168.915 20.088 169.258 19.933C169.569 19.778 169.818 19.561 170.098 19.375C170.409 19.499 170.721 19.654 171.032 19.747C171.623 19.902 172.028 19.654 172.152 19.065C172.215 18.724 172.37 18.352 171.935 17.98C171.841 18.166 171.779 18.29 171.748 18.414C171.717 18.6 171.748 18.786 171.717 18.972C171.654 19.282 171.437 19.406 171.156 19.313C170.783 19.189 170.409 19.034 170.223 18.662C169.818 17.918 169.631 17.112 169.694 16.275C169.725 15.779 170.005 15.5 170.441 15.314C170.876 15.128 171.281 15.221 171.592 15.531C171.872 15.841 172.121 16.182 172.277 16.554C172.433 16.957 172.495 17.391 172.619 17.825C172.682 18.073 172.744 18.321 172.868 18.538C173.117 18.972 173.397 19.034 173.833 18.786C174.02 18.693 174.207 18.569 174.362 18.445C175.109 17.887 176.448 18.104 177.132 19.003C177.381 19.313 177.475 19.654 177.288 20.026C177.07 20.398 176.759 20.522 176.354 20.46C176.074 20.429 175.794 20.367 175.514 20.367C174.518 20.336 173.74 20.646 173.148 21.483C172.775 22.01 172.277 22.475 171.748 23.033C171.654 24.893 173.522 27.745 176.479 29.264C176.541 29.078 176.603 28.923 176.634 28.768C177.164 26.722 177.817 24.707 178.938 22.909C179.373 22.227 179.809 21.545 180.307 20.925C181.272 19.747 182.268 18.6 183.295 17.515C184.478 16.244 185.661 14.942 186.626 13.485C187.124 12.71 187.466 11.873 187.808 11.005C188.337 9.60999 188.898 9.26899 190.329 9.64099C194.407 10.757 198.329 12.245 202.064 14.26C203.558 15.066 205.02 15.934 206.483 16.802C207.355 17.329 208.164 17.918 208.88 18.662C209.44 19.22 209.502 19.747 209.191 20.522C208.164 23.033 207.324 25.606 207.075 28.334C206.888 30.473 206.577 32.612 206.328 34.751C206.141 36.301 205.55 37.727 204.865 39.091C204.803 39.215 204.74 39.339 204.647 39.525C204.771 39.649 204.896 39.773 205.02 39.897C206.328 41.168 206.857 42.749 206.95 44.547C207.012 45.601 206.857 46.562 206.297 47.461C205.861 48.174 205.238 48.67 204.429 48.918C203.713 49.135 202.966 49.197 202.188 49.166C199.978 49.073 198.017 48.298 196.181 47.182C195.87 46.996 195.59 46.934 195.216 47.058C193.566 47.709 191.823 47.926 190.08 47.957C189.271 47.957 188.462 47.833 187.684 47.74C187.341 47.709 187.061 47.771 186.781 47.988C184.478 49.662 182.144 51.305 179.84 52.979C178.969 53.63 178.097 54.343 177.319 55.118C176.666 55.769 176.074 56.482 175.545 57.195C174.923 58.032 173.958 58.249 173.055 57.381C171.81 56.203 170.627 54.932 169.694 53.475C169.32 52.886 169.009 52.266 168.978 51.584C168.978 51.243 168.978 50.902 169.04 50.561C169.289 49.538 170.098 48.887 171.063 48.949C172.09 49.011 172.868 49.724 173.024 50.778C173.055 50.995 173.024 51.243 173.086 51.46C173.18 51.863 173.273 52.266 173.46 52.638C173.864 53.32 174.58 53.382 175.203 52.917C177.413 51.212 179.654 49.507 181.895 47.802C182.455 47.244 183.015 46.779 183.669 46.283ZM202.593 37.603C202.655 37.479 202.717 37.386 202.779 37.262C203.713 35.309 204.118 33.201 204.273 31.062C204.491 28.086 204.927 25.141 205.643 22.227C205.923 21.049 205.705 20.057 204.74 19.282C204.585 19.158 204.46 19.034 204.305 18.941C201.223 16.771 198.017 14.88 194.562 13.392C193.566 12.958 192.477 12.617 191.419 12.369C190.361 12.121 190.236 12.245 189.645 13.206C189.209 13.919 188.804 14.632 188.275 15.252C187.435 16.213 186.563 17.174 185.598 18.011C183.575 19.747 182.019 21.824 180.836 24.18C179.84 26.133 179.311 28.21 178.938 30.318C178.72 31.434 178.938 32.55 179.124 33.666C179.467 35.805 180.214 37.665 181.801 39.277C184.26 41.757 187.186 43.214 190.547 43.803C193.66 44.33 196.648 43.679 199.325 41.943C199.791 41.633 200.196 41.261 200.538 40.765C199.823 40.393 199.138 40.021 198.422 39.649C197.862 39.37 197.301 39.122 196.772 38.812C196.15 38.44 195.87 37.882 196.025 37.169C196.181 36.425 196.554 35.805 197.395 35.619C198.017 35.495 198.609 35.619 199.138 35.867C200.258 36.425 201.379 37.014 202.593 37.603ZM202.655 42.532C202.032 43.152 201.472 43.679 200.943 44.268C200.694 44.547 200.694 44.702 200.943 44.981C201.348 45.415 201.877 45.539 202.437 45.57C203.122 45.601 203.371 45.353 203.371 44.671C203.402 43.896 203.122 43.214 202.655 42.532Z" fill="#004235"/>
    <path d="M182.766 51.615C183.575 51.057 184.26 50.592 184.976 50.127C185.069 50.065 185.287 50.065 185.412 50.127C187.061 50.809 188.68 50.747 190.329 50.127C190.983 49.879 191.574 49.538 192.104 49.104C192.477 48.794 192.882 48.546 193.411 48.515C194.469 48.453 195.06 49.104 195.527 49.879C195.714 50.158 195.807 50.53 195.87 50.84C196.119 52.297 196.212 53.754 195.994 55.211C195.87 56.172 195.496 56.978 194.562 57.412C193.691 57.846 192.851 57.691 192.29 56.916C191.979 56.451 191.73 55.924 191.543 55.397C191.325 54.777 191.45 54.157 191.823 53.63C192.041 53.32 192.259 53.041 192.508 52.762C192.664 52.576 192.882 52.421 192.726 52.049C192.539 52.142 192.353 52.204 192.166 52.297C191.761 52.483 191.325 52.7 190.921 52.917C189.022 53.94 187.092 53.94 185.163 53.041C184.54 52.762 183.918 52.421 183.326 52.111C183.202 52.018 183.046 51.863 182.766 51.615Z" fill="#004235"/>
    <path d="M168.604 15.686C169.164 15.748 169.32 15.934 169.32 16.461C169.32 17.143 169.413 17.825 169.694 18.476C169.88 18.91 169.849 19.034 169.413 19.344C168.915 19.716 168.76 19.747 168.386 19.437C167.515 18.755 167.204 17.825 167.235 16.771C167.266 16.058 167.888 15.624 168.604 15.686Z" fill="#004235"/>
    <path d="M167.328 21.111C167.266 21.08 167.11 21.049 167.017 20.987C166.301 20.677 165.461 19.22 165.927 18.228C166.021 18.042 166.145 17.856 166.301 17.763C166.55 17.577 166.768 17.639 166.923 17.918C166.986 18.073 167.017 18.228 167.079 18.383C167.266 18.941 167.577 19.406 168.044 19.778C168.449 20.119 168.48 20.212 168.293 20.646C168.137 20.987 167.857 21.142 167.328 21.111Z" fill="#004235"/>
    <path d="M181.832 27.869C182.019 27.373 182.206 26.753 182.455 26.195C183.295 24.397 184.447 22.816 185.972 21.514C187.155 20.491 188.213 19.344 189.147 18.104C189.302 17.887 189.458 17.701 189.645 17.546C190.018 17.267 190.423 17.422 190.547 17.856C190.641 18.228 190.516 18.6 190.329 18.91C189.894 19.592 189.427 20.243 188.929 20.863C188.462 21.452 187.902 21.979 187.373 22.506C185.785 24.149 184.478 26.009 183.7 28.179C183.575 28.489 183.451 28.83 183.264 29.109C183.108 29.357 182.828 29.543 182.517 29.481C182.144 29.419 181.957 29.14 181.895 28.799C181.832 28.489 181.832 28.241 181.832 27.869Z" fill="#004235"/>
</svg>
